<svg xmlns="http://www.w3.org/2000/svg"  viewBox="0 0 48 48" width="500px" height="500px"><path d="M 19.380859 1.9980469 C 19.213433 1.9980469 18.917302 2.0162449 18.566406 2.1816406 C 18.215511 2.347036 17.824986 2.7000432 17.621094 3.1914062 L 15.841797 7.4804688 C 14.293009 11.210184 11.455417 14.134698 7.8398438 15.738281 L 3.1542969 17.818359 C 2.6549309 18.040193 2.3183236 18.456431 2.1660156 18.810547 C 2.0137076 19.164663 2 19.455252 2 19.619141 C 2 19.78303 2.013396 20.075609 2.1660156 20.429688 C 2.3184852 20.783417 2.6556844 21.198854 3.1542969 21.419922 L 7.9882812 23.566406 C 11.506009 25.128172 14.307587 27.960374 15.876953 31.556641 L 17.634766 35.582031 C 17.844299 36.062078 18.231261 36.402182 18.576172 36.5625 C 18.921441 36.722985 19.21065 36.740234 19.378906 36.740234 C 19.544525 36.740234 19.834361 36.724054 20.179688 36.564453 C 20.525012 36.404847 20.912935 36.06642 21.125 35.587891 A 1.0001 1.0001 0 0 0 21.126953 35.582031 L 22.884766 31.558594 C 24.455147 27.962156 27.255709 25.130125 30.773438 23.568359 L 35.609375 21.421875 A 1.0001 1.0001 0 0 0 35.609375 21.419922 C 36.108239 21.197884 36.443395 20.78185 36.595703 20.427734 C 36.74731 20.075249 36.762723 19.791047 36.761719 19.617188 C 36.761653 19.453094 36.747279 19.163388 36.595703 18.810547 C 36.443771 18.456886 36.108236 18.039861 35.609375 17.818359 L 30.923828 15.738281 L 30.921875 15.738281 C 27.305419 14.131512 24.467413 11.207445 22.919922 7.4804688 L 21.140625 3.1933594 C 20.936613 2.7017091 20.545724 2.34917 20.195312 2.1835938 C 19.844901 2.0180174 19.550859 1.9980469 19.380859 1.9980469 z M 19.380859 4.1699219 L 21.074219 8.2480469 C 22.812504 12.434531 26.024533 15.751114 30.111328 17.566406 L 34.738281 19.619141 L 29.960938 21.740234 C 25.982664 23.506468 22.8164 26.71425 21.050781 30.757812 L 19.380859 34.583984 L 17.708984 30.757812 L 17.708984 30.755859 C 15.944214 26.712921 12.778533 23.504284 8.8007812 21.738281 L 4.0273438 19.619141 L 8.6503906 17.566406 C 12.736818 15.753989 15.950241 12.434379 17.689453 8.2460938 L 19.380859 4.1699219 z M 37.712891 30.001953 A 1.0001 1.0001 0 0 0 36.837891 30.617188 L 36.330078 31.841797 C 35.457431 33.946789 33.859397 35.592385 31.820312 36.498047 L 30.382812 37.136719 A 1.0001 1.0001 0 0 0 29.787109 38.050781 L 29.787109 38.150391 A 1.0001 1.0001 0 0 0 30.382812 39.064453 L 31.904297 39.740234 C 33.887074 40.620971 35.464203 42.215873 36.349609 44.246094 A 1.0001 1.0001 0 0 0 36.349609 44.25 L 36.855469 45.400391 A 1.0001 1.0001 0 0 0 37.455078 45.947266 C 37.455078 45.947266 37.640964 46 37.779297 46 A 1.0001 1.0001 0 0 0 38.519531 45.671875 L 38.539062 45.650391 A 1.0001 1.0001 0 0 0 38.716797 45.378906 L 39.210938 44.248047 C 40.097403 42.216564 41.673771 40.621896 43.65625 39.742188 L 45.177734 39.066406 A 1.0001 1.0001 0 0 0 45.771484 38.152344 L 45.771484 38.050781 A 1.0001 1.0001 0 0 0 45.177734 37.136719 L 43.742188 36.498047 A 1.0001 1.0001 0 0 0 43.740234 36.498047 C 41.699986 35.591369 40.103176 33.946032 39.230469 31.841797 A 1.0001 1.0001 0 0 0 39.220703 31.816406 L 38.673828 30.591797 A 1.0001 1.0001 0 0 0 37.712891 30.001953 z M 37.78125 33.212891 C 38.832403 35.334581 40.481442 37.050589 42.591797 38.089844 C 40.500029 39.093316 38.855724 40.777499 37.78125 42.851562 C 36.707482 40.777676 35.062499 39.094213 32.970703 38.089844 C 35.08075 37.051185 36.729979 35.335859 37.78125 33.212891 z"/></svg>